<svg width="26" height="24" viewBox="0 0 26 24" fill="none" xmlns="http://www.w3.org/2000/svg">
<path fill-rule="evenodd" clip-rule="evenodd" d="M13.0101 0C6.25638 0 0.796631 5.5 0.796631 12.3042C0.796631 17.7432 4.29488 22.3472 9.14788 23.9767C9.75463 24.0992 9.97688 23.712 9.97688 23.3862C9.97688 23.101 9.95688 22.1232 9.95688 21.1045C6.55938 21.838 5.85188 19.6378 5.85188 19.6378C5.30588 18.2118 4.49688 17.8452 4.49688 17.8452C3.38488 17.0915 4.57788 17.0915 4.57788 17.0915C5.81138 17.173 6.45863 18.3545 6.45863 18.3545C7.55038 20.2285 9.30963 19.699 10.0174 19.373C10.1184 18.5785 10.4421 18.0285 10.7859 17.723C8.07613 17.4377 5.22513 16.3785 5.22513 11.6523C5.22513 10.3078 5.71013 9.20775 6.47863 8.35225C6.35738 8.04675 5.93263 6.7835 6.60013 5.09275C6.60013 5.09275 7.63138 4.76675 9.95663 6.35575C10.9522 6.08642 11.9788 5.9494 13.0101 5.94825C14.0414 5.94825 15.0926 6.091 16.0634 6.35575C18.3889 4.76675 19.4201 5.09275 19.4201 5.09275C20.0876 6.7835 19.6626 8.04675 19.5414 8.35225C20.3301 9.20775 20.7951 10.3078 20.7951 11.6523C20.7951 16.3785 17.9441 17.4172 15.2141 17.723C15.6591 18.11 16.0431 18.8433 16.0431 20.0045C16.0431 21.6545 16.0231 22.9788 16.0231 23.386C16.0231 23.712 16.2456 24.0992 16.8521 23.977C21.7051 22.347 25.2034 17.7432 25.2034 12.3042C25.2234 5.5 19.7436 0 13.0101 0Z" fill="white"/>
</svg>
