<svg width="147" height="34" viewBox="0 0 147 34" fill="none" xmlns="http://www.w3.org/2000/svg">
<path d="M55.4462 16.816L63.7168 5.77703H57.3006L52.1454 13.1731L46.916 5.77703H40.2031L48.3624 17.0736L39.7581 28.6276H46.1372L51.7003 20.8268L57.2264 28.6276H63.9764L55.4462 16.816Z" fill="white"/>
<path d="M81.7414 21.6731H81.6672L76.4425 5.77703H67.6851V28.6645H73.1V11.8117H73.2483L78.9598 28.6645H84.0409L89.7153 11.8117H89.8636V28.6645H95.6493V5.77703H87.0079L81.7414 21.6731Z" fill="white"/>
<path d="M99.5065 5.74023V10.5606H107.649L107.629 28.6276H113.451L113.463 10.5606H121.574V5.74023H99.5065Z" fill="white"/>
<path d="M136.854 5.74023H125.357V28.6276H131.179V21.4892H136.743C142.652 21.4892 146.2 18.6772 146.2 13.5043C146.2 8.39415 142.645 5.77302 136.863 5.77302L136.854 5.74023ZM131.179 16.7424V10.5606H136.298C138.731 10.5606 140.34 11.3683 140.34 13.6883C140.34 15.9769 138.746 16.7056 136.186 16.7056L131.179 16.7424Z" fill="white"/>
<path d="M0 17C0 7.61116 7.6714 0 17.1346 0C26.5916 0 33.8982 7.4697 34.1207 16.9264C34.1207 19.9437 33.0823 22.4827 30.4861 24.8745C28.2923 26.8956 24.5521 27.1926 21.8078 25.684C19.8491 24.563 18.3396 22.1755 17.0604 20.4221L14.6868 24.0281H9.56865L14.3901 16.9262L9.717 9.93506H14.9835L17.0975 13.5411L19.1744 9.93506H24.4779L19.6565 16.9264C19.6565 16.9264 21.956 20.4221 23.2169 21.7835C24.4779 23.145 26.7774 23.1818 28.2609 21.71C29.8919 20.0917 30.2571 18.8031 30.2636 16.9264C30.2891 9.66234 24.4736 3.82684 17.1346 3.82684C9.80163 3.82684 3.85713 9.72466 3.85713 17C3.85713 24.2753 9.80163 30.1732 17.1346 30.1732C18.1488 30.1732 19.121 30.0886 20.0645 29.8788L20.8804 33.5952C19.5379 33.8939 18.4532 34 17.1346 34C7.6714 34 0 26.3888 0 17Z" fill="#FC4F37"/>
</svg>
