<svg width="30" height="30" viewBox="0 0 30 30" fill="none" xmlns="http://www.w3.org/2000/svg">
<path d="M0 15C0 6.71573 6.71573 0 15 0C23.2843 0 30 6.71573 30 15V30H15C6.71573 30 0 23.2843 0 15Z" fill="#4F46E5"/>
<path fill-rule="evenodd" clip-rule="evenodd" d="M15 23.25C14.5858 23.25 14.25 22.9142 14.25 22.5V9.31066L8.78033 14.7803C8.48744 15.0732 8.01256 15.0732 7.71967 14.7803C7.42678 14.4874 7.42678 14.0126 7.71967 13.7197L14.4697 6.96967C14.7626 6.67678 15.2374 6.67678 15.5303 6.96967L22.2803 13.7197C22.5732 14.0126 22.5732 14.4874 22.2803 14.7803C21.9874 15.0732 21.5126 15.0732 21.2197 14.7803L15.75 9.31066V22.5C15.75 22.9142 15.4142 23.25 15 23.25Z" fill="white"/>
</svg>
