<svg width="25" height="24" viewBox="0 0 25 24" fill="none" xmlns="http://www.w3.org/2000/svg">
<path d="M2.5 12C2.5 6.47715 6.99662 2 12.5435 2C18.0867 2 22.3696 6.39394 22.5 11.9567C22.5 13.7316 21.8913 15.2251 20.3696 16.632C19.0837 17.8209 16.8913 17.9957 15.2827 17.1082C14.1346 16.4488 13.2498 15.0444 12.5 14.013L11.1087 16.1342H8.1087L10.9348 11.9566L8.19565 7.84416H11.2826L12.5217 9.96537L13.7391 7.84416H16.8478L14.0217 11.9567C14.0217 11.9567 15.3696 14.013 16.1087 14.8139C16.8478 15.6147 18.1957 15.6364 19.0652 14.7706C20.0213 13.8186 20.2353 13.0607 20.2391 11.9567C20.254 7.68373 16.8453 4.25108 12.5435 4.25108C8.24526 4.25108 4.76087 7.72039 4.76087 12C4.76087 16.2796 8.24526 19.7489 12.5435 19.7489C13.138 19.7489 13.7079 19.6992 14.2609 19.5758L14.7826 21.7619C13.9957 21.9376 13.3164 22 12.5435 22C6.99662 22 2.5 17.5228 2.5 12Z" fill="#FC4F37"/>
</svg>
