<svg width="24" height="24" viewBox="0 0 24 24" fill="none" xmlns="http://www.w3.org/2000/svg">
<path d="M2 12C2 6.47715 6.49662 2 12.0435 2C17.5867 2 21.8696 6.39394 22 11.9567C22 13.7316 21.3913 15.2251 19.8696 16.632C18.5837 17.8209 16.3913 17.9957 14.7827 17.1082C13.6346 16.4488 12.7498 15.0444 12 14.013L10.6087 16.1342H7.6087L10.4348 11.9566L7.69565 7.84416H10.7826L12.0217 9.96537L13.2391 7.84416H16.3478L13.5217 11.9567C13.5217 11.9567 14.8696 14.013 15.6087 14.8139C16.3478 15.6147 17.6957 15.6364 18.5652 14.7706C19.5213 13.8186 19.7353 13.0607 19.7391 11.9567C19.754 7.68373 16.3453 4.25108 12.0435 4.25108C7.74526 4.25108 4.26087 7.72039 4.26087 12C4.26087 16.2796 7.74526 19.7489 12.0435 19.7489C12.638 19.7489 13.2079 19.6992 13.7609 19.5758L14.2826 21.7619C13.4957 21.9376 12.8164 22 12.0435 22C6.49662 22 2 17.5228 2 12Z" fill="white"/>
</svg>
